<svg width="22" height="34" viewBox="0 0 22 34" fill="none" xmlns="http://www.w3.org/2000/svg">
<path d="M13.6667 33.6666H7.00004C6.55801 33.6666 6.13409 33.491 5.82153 33.1784C5.50897 32.8659 5.33337 32.442 5.33337 31.9999V21.6666H2.00004C1.55801 21.6666 1.13409 21.491 0.82153 21.1784C0.508969 20.8659 0.333374 20.442 0.333374 19.9999V13.9999C0.333374 13.5579 0.508969 13.134 0.82153 12.8214C1.13409 12.5089 1.55801 12.3333 2.00004 12.3333H5.33337V9.49993C5.4502 6.96051 6.56775 4.57066 8.44166 2.85291C10.3156 1.13515 12.7934 0.22924 15.3334 0.333258H20.3334C20.7754 0.333258 21.1993 0.508852 21.5119 0.821413C21.8244 1.13397 22 1.5579 22 1.99992V7.99993C22 8.44195 21.8244 8.86588 21.5119 9.17844C21.1993 9.491 20.7754 9.66659 20.3334 9.66659H15.3334V12.3333H20.3334C20.5907 12.3313 20.845 12.389 21.0763 12.5018C21.3077 12.6145 21.5097 12.7793 21.6667 12.9833C21.822 13.1903 21.9269 13.4305 21.9732 13.6851C22.0194 13.9397 22.0058 14.2015 21.9334 14.4499L20.2667 20.4499C20.1659 20.8104 19.9467 21.1265 19.6443 21.3472C19.342 21.5679 18.9741 21.6804 18.6 21.6666H15.3334V31.9999C15.3334 32.442 15.1578 32.8659 14.8452 33.1784C14.5327 33.491 14.1087 33.6666 13.6667 33.6666ZM8.66671 30.3333H12V19.9999C12 19.5579 12.1756 19.134 12.4882 18.8214C12.8008 18.5089 13.2247 18.3333 13.6667 18.3333H17.4L18.1334 15.6666H13.6667C13.2247 15.6666 12.8008 15.491 12.4882 15.1784C12.1756 14.8659 12 14.442 12 13.9999V9.49993C12.0428 8.64507 12.4128 7.83944 13.0334 7.24992C13.6539 6.66041 14.4775 6.33219 15.3334 6.33326H18.6667V3.66659H15.3334C13.6781 3.56574 12.0497 4.12164 10.8017 5.2137C9.55361 6.30575 8.78648 7.84587 8.66671 9.49993V13.9999C8.66671 14.442 8.49111 14.8659 8.17855 15.1784C7.86599 15.491 7.44207 15.6666 7.00004 15.6666H3.66671V18.3333H7.00004C7.44207 18.3333 7.86599 18.5089 8.17855 18.8214C8.49111 19.134 8.66671 19.5579 8.66671 19.9999V30.3333Z" fill="#F7F0F0" fill-opacity="0.94"/>
</svg>
