<svg width="73" height="92" viewBox="0 0 73 92" fill="none" xmlns="http://www.w3.org/2000/svg">
<path d="M34.336 27.9242C42.144 27.9242 44.7 21.6268 41.692 14.9601C38.208 7.23999 49.272 0.573273 43.776 0.573273C38.572 0.573273 28.832 7.03935 27.016 15.0878C25.66 21.1252 28.2 27.9242 34.336 27.9242ZM55.184 68.7407L53.408 66.9942C52.4339 66.0688 51.206 65.5619 49.938 65.5619C48.67 65.5619 47.4421 66.0688 46.468 66.9942L44.7 68.7362C42.279 71.1025 39.193 72.3987 36.004 72.3887C32.8168 72.3993 29.7323 71.1047 27.312 68.7407L25.536 66.9897C24.5624 66.0644 23.3348 65.558 22.0673 65.5588C20.7997 65.5596 19.5726 66.0676 18.6 66.9942L16.824 68.7407C12.052 73.4284 4.956 73.5561 0.0079999 69.1967V87.04C0.0079999 88.2494 0.429428 89.4092 1.17957 90.2644C1.92972 91.1196 2.94713 91.6 4.008 91.6H68.008C69.0689 91.6 70.0863 91.1196 70.8364 90.2644C71.5866 89.4092 72.008 88.2494 72.008 87.04V69.2013C67.06 73.5515 59.964 73.4375 55.184 68.7407ZM36 32.32C5.704 32.32 0 47.6462 0 55.12V57.2586L4.656 61.8323C5.63009 62.7578 6.85798 63.2646 8.126 63.2646C9.39403 63.2646 10.6219 62.7578 11.596 61.8323L13.372 60.0858C15.7974 57.7338 18.8778 56.4423 22.062 56.4423C25.2462 56.4423 28.3266 57.7338 30.752 60.0858L32.528 61.8369C34.464 63.7384 37.508 63.7521 39.468 61.8323L41.236 60.0904C43.6609 57.7357 46.7419 56.4421 49.9273 56.4412C53.1126 56.4404 56.1942 57.7324 58.62 60.0858L60.396 61.8323C62.344 63.7521 65.396 63.7338 67.336 61.8323L72 57.2586V55.12C72 47.6462 66.296 32.32 36 32.32Z" fill="black"/>
</svg>
