<svg width="37" height="32" viewBox="0 0 37 32" fill="none" xmlns="http://www.w3.org/2000/svg">
<path d="M36.2323 5.53241C36.0904 5.18979 35.8501 4.89694 35.5417 4.6909C35.2334 4.48487 34.8709 4.3749 34.5 4.37491H30.0975C29.3709 3.24103 28.3745 2.30503 27.1974 1.6507C26.0203 0.996366 24.6994 0.644136 23.3528 0.62554C22.2791 0.618541 21.2146 0.823119 20.22 1.22759C19.2254 1.63206 18.3203 2.2285 17.5562 2.98284C16.7922 3.73718 16.1842 4.63465 15.767 5.62399C15.3499 6.61333 15.1317 7.67515 15.125 8.74882L15.1248 8.87804C9.29953 7.07523 4.62671 2.47491 4.57578 2.42413C4.33383 2.18217 4.03028 2.01103 3.69801 1.92926C3.36575 1.84749 3.01745 1.85819 2.69084 1.96022C2.36423 2.06225 2.07176 2.25171 1.84513 2.50808C1.6185 2.76445 1.46635 3.07794 1.40515 3.4146C-0.00578619 11.1754 2.33812 16.3876 4.55296 19.3933C5.5295 20.7181 6.6842 21.9018 7.98437 22.9109C5.72687 25.1613 2.6264 26.3562 2.59187 26.3693C2.32742 26.4685 2.08879 26.6261 1.8938 26.8304C1.69881 27.0348 1.5525 27.2805 1.4658 27.5493C1.3791 27.8181 1.35424 28.103 1.39309 28.3828C1.43194 28.6625 1.53349 28.9299 1.69015 29.1649C1.99156 29.6176 3.78593 31.8749 9.49999 31.8749C20.7684 31.8749 30.1956 23.2587 31.2727 12.129L35.8258 7.57585C36.088 7.31361 36.2666 6.97951 36.3389 6.61579C36.4113 6.25207 36.3742 5.87505 36.2323 5.53241V5.53241ZM28.1331 9.96523C27.8107 10.2877 27.6168 10.7167 27.5878 11.1718C26.9822 20.678 19.037 28.1249 9.49999 28.1249C8.84744 28.1284 8.19541 28.0873 7.54843 28.0021C9.17765 26.9609 11.0169 25.4798 12.31 23.5399C12.4582 23.3198 12.5577 23.0705 12.602 22.8089C12.6463 22.5472 12.6344 22.2791 12.5669 22.0225C12.4995 21.7658 12.3781 21.5265 12.211 21.3204C12.0438 21.1143 11.8346 20.9462 11.5973 20.8273C11.2762 20.6624 4.47437 17.046 4.73203 7.47898C7.41562 9.53335 11.7677 12.2788 16.6895 13.0993C16.958 13.144 17.233 13.1298 17.4954 13.0576C17.7578 12.9853 18.0014 12.8568 18.2091 12.681C18.4169 12.5052 18.5838 12.2862 18.6985 12.0394C18.8131 11.7925 18.8726 11.5236 18.8728 11.2515L18.875 8.75194V8.75023C18.8882 7.58425 19.361 6.47059 20.1908 5.65135C21.0206 4.83211 22.1402 4.37351 23.3062 4.37523C24.148 4.38693 24.9686 4.64071 25.67 5.10624C26.3714 5.57178 26.924 6.2294 27.2617 7.00054C27.4077 7.33472 27.648 7.61907 27.9531 7.81878C28.2583 8.01848 28.615 8.12487 28.9797 8.12491H29.9734L28.1331 9.96523Z" fill="#F7F0F0" fill-opacity="0.94"/>
</svg>
